<?xml version="1.0" encoding="iso-8859-1"?>
<!-- Generator: Adobe Illustrator 19.0.0, SVG Export Plug-In . SVG Version: 6.00 Build 0)  -->
<svg version="1.1" id="Capa_1" xmlns="http://www.w3.org/2000/svg" xmlns:xlink="http://www.w3.org/1999/xlink" x="0px" y="0px"
	 viewBox="0 0 480.014 480.014" style="enable-background:new 0 0 480.014 480.014;" xml:space="preserve">
<path style="fill:#88B337;" d="M112.014,12.007h32c53.019,0,96,42.981,96,96l0,0h-32C154.995,108.007,112.014,65.026,112.014,12.007
	L112.014,12.007z"/>
<path style="fill:#6A9923;" d="M272.014,108.007h-32l0,0c0-53.019,42.981-96,96-96h32l0,0
	C368.014,65.026,325.033,108.007,272.014,108.007z"/>
<path style="fill:#88B337;" d="M240.014,204.007c-4.418,0-8-3.582-8-8v-88c0-4.418,3.582-8,8-8s8,3.582,8,8v88
	C248.014,200.425,244.432,204.007,240.014,204.007z"/>
<path style="fill:#8C421C;" d="M400.014,340.007h-320l119.52-126.552c10.519-11.136,25.161-17.447,40.48-17.448
	c15.319,0.001,29.961,6.312,40.48,17.448L400.014,340.007z"/>
<path style="fill:#733616;" d="M305.614,240.007c-35.505,39.297-76.737,73.01-122.304,100h216.704L305.614,240.007z"/>
<path style="fill:#F2BB80;" d="M447.782,260.007c-5.052-0.001-9.977,1.576-14.088,4.512l-62.688,44.8l-42.992,30.688h-168
	c-8.837,0-16-7.163-16-16s7.163-16,16-16h104c13.255,0,24-10.745,24-24s-10.745-24-24-24h-113.48
	c-32.89,0.001-62.428,20.132-74.456,50.744L8.014,468.007h144l16-48l160-16l133.952-96.744c6.31-4.556,10.048-11.865,10.048-19.648
	v-3.376C472.014,270.856,461.165,260.007,447.782,260.007L447.782,260.007z"/>
<path d="M447.782,252.007c-6.72-0.013-13.274,2.086-18.736,6l-57.032,40.728l-85.704-90.728
	c-10.146-10.695-23.674-17.559-38.296-19.432v-72.568h32c57.41-0.066,103.934-46.59,104-104c0-4.418-3.582-8-8-8h-32
	c-54.314,0.086-99.429,41.926-103.6,96.08c-0.136,0-0.256-0.08-0.4-0.08s-0.264,0.072-0.4,0.08
	c-4.171-54.154-49.286-95.994-103.6-96.08h-32c-4.418,0-8,3.582-8,8c0.066,57.41,46.59,103.934,104,104h32v72.568
	c-14.622,1.873-28.15,8.737-38.296,19.432l-41.6,44h-1.6c-36.126-0.162-68.629,21.922-81.784,55.568L0.67,464.807
	c-1.767,4.049,0.083,8.765,4.132,10.532c1.013,0.442,2.107,0.67,3.212,0.668h144c3.445,0.001,6.503-2.204,7.592-5.472l14.36-43.08
	l154.848-15.448c1.4-0.141,2.739-0.649,3.88-1.472l133.96-96.792c8.377-6.07,13.344-15.783,13.36-26.128v-3.376
	C479.992,266.447,465.574,252.029,447.782,252.007L447.782,252.007z M200.014,100.007c-45.481-0.054-83.449-34.712-87.64-80h23.64
	c45.481,0.054,83.449,34.712,87.64,80H200.014z M344.014,20.007h23.64c-4.191,45.288-42.159,79.946-87.64,80h-23.64
	C260.565,54.719,298.533,20.061,344.014,20.007z M205.35,218.951c18.074-19.144,48.246-20.012,67.391-1.937
	c0.664,0.627,1.31,1.273,1.937,1.937l84.216,89.168l-33.44,23.888h-165.44c-4.418,0-8-3.582-8-8s3.582-8,8-8h104
	c17.673,0,32-14.327,32-32s-14.327-32-32-32h-89.888L205.35,218.951z M464.014,287.615c-0.004,5.212-2.505,10.105-6.728,13.16
	l-132.208,95.488l-157.864,15.784c-3.136,0.314-5.796,2.441-6.792,5.432l-14.176,42.528H20.19l63.328-146.328
	c10.733-27.627,37.378-45.786,67.016-45.672h113.48c8.837,0,16,7.163,16,16s-7.163,16-16,16h-104c-13.255,0-24,10.745-24,24
	s10.745,24,24,24h168c1.667,0,3.291-0.52,4.648-1.488l43-30.712l62.688-44.8c7.296-5.209,17.433-3.518,22.642,3.778
	c1.969,2.758,3.026,6.064,3.022,9.454L464.014,287.615z"/>
<g>
</g>
<g>
</g>
<g>
</g>
<g>
</g>
<g>
</g>
<g>
</g>
<g>
</g>
<g>
</g>
<g>
</g>
<g>
</g>
<g>
</g>
<g>
</g>
<g>
</g>
<g>
</g>
<g>
</g>
</svg>
