<svg id="Smooth" enable-background="new 0 0 128 128" height="512" viewBox="0 0 128 128" width="512" xmlns="http://www.w3.org/2000/svg" xmlns:xlink="http://www.w3.org/1999/xlink"><linearGradient id="lg1"><stop offset="0" stop-color="#809000"/><stop offset="1" stop-color="#6b7f00"/></linearGradient><linearGradient id="SVGID_1_" gradientTransform="matrix(-1 0 0 1 -330 0)" gradientUnits="userSpaceOnUse" x1="-435" x2="-435" xlink:href="#lg1" y1="74.375" y2="62.932"/><linearGradient id="lg2"><stop offset="0" stop-color="#a6b046"/><stop offset="1" stop-color="#9ca728"/></linearGradient><linearGradient id="SVGID_2_" gradientTransform="matrix(-1 0 0 1 -330 0)" gradientUnits="userSpaceOnUse" x1="-439" x2="-439" xlink:href="#lg2" y1="69.726" y2="73.22"/><linearGradient id="SVGID_3_" gradientUnits="userSpaceOnUse" x1="101" x2="101" xlink:href="#lg2" y1="69.726" y2="73.22"/><linearGradient id="SVGID_4_" gradientTransform="matrix(-1 0 0 1 -330 0)" gradientUnits="userSpaceOnUse" x1="-352" x2="-352" xlink:href="#lg1" y1="74.375" y2="62.932"/><linearGradient id="SVGID_5_" gradientTransform="matrix(-1 0 0 1 -330 0)" gradientUnits="userSpaceOnUse" x1="-356" x2="-356" xlink:href="#lg2" y1="69.726" y2="73.22"/><linearGradient id="SVGID_6_" gradientUnits="userSpaceOnUse" x1="18" x2="18" xlink:href="#lg2" y1="69.726" y2="73.22"/><linearGradient id="SVGID_7_" gradientUnits="userSpaceOnUse" x1="64" x2="64" y1="98.25" y2="78.25"><stop offset="0" stop-color="#92634d"/><stop offset="1" stop-color="#92634d"/></linearGradient><linearGradient id="lg3"><stop offset="0" stop-color="#ffd385"/><stop offset=".8238" stop-color="#ff9b34"/></linearGradient><linearGradient id="SVGID_8_" gradientUnits="userSpaceOnUse" x1="-17" x2="141.394" xlink:href="#lg3" y1="57.506" y2="57.506"/><linearGradient id="lg4"><stop offset="0" stop-color="#d59a61"/><stop offset="1" stop-color="#c07e51"/></linearGradient><linearGradient id="SVGID_9_" gradientUnits="userSpaceOnUse" x1="65.949" x2="62.199" xlink:href="#lg4" y1="1.123" y2="22.373"/><linearGradient id="SVGID_10_" gradientUnits="userSpaceOnUse" x1="-17" x2="141.394" xlink:href="#lg3" y1="80.496" y2="80.496"/><linearGradient id="SVGID_11_" gradientUnits="userSpaceOnUse" x1="80.6" x2="76.85" xlink:href="#lg4" y1="3.709" y2="24.959"/><linearGradient id="SVGID_12_" gradientUnits="userSpaceOnUse" x1="-40.686" x2="-21.936" xlink:href="#lg4" y1="83.798" y2="86.048"/><linearGradient id="SVGID_13_" gradientUnits="userSpaceOnUse" x1="-43.142" x2="-24.392" xlink:href="#lg4" y1="104.263" y2="106.513"/><linearGradient id="SVGID_14_" gradientUnits="userSpaceOnUse" x1="-40.108" x2="-21.358" xlink:href="#lg4" y1="78.987" y2="81.237"/><linearGradient id="SVGID_15_" gradientUnits="userSpaceOnUse" x1="-41.821" x2="-23.071" xlink:href="#lg4" y1="93.261" y2="95.511"/><linearGradient id="SVGID_16_" gradientUnits="userSpaceOnUse" x1="-42.422" x2="-23.672" xlink:href="#lg4" y1="98.269" y2="100.519"/><linearGradient id="SVGID_17_" gradientUnits="userSpaceOnUse" x1="-41.888" x2="-23.138" xlink:href="#lg4" y1="93.814" y2="96.064"/><linearGradient id="SVGID_18_" gradientUnits="userSpaceOnUse" x1="-40.752" x2="-22.002" xlink:href="#lg4" y1="84.35" y2="86.6"/><linearGradient id="SVGID_19_" gradientUnits="userSpaceOnUse" x1="-44.05" x2="-25.3" xlink:href="#lg4" y1="111.834" y2="114.084"/><linearGradient id="SVGID_20_" gradientUnits="userSpaceOnUse" x1="-43.558" x2="-24.808" xlink:href="#lg4" y1="107.733" y2="109.983"/><linearGradient id="SVGID_21_" gradientUnits="userSpaceOnUse" x1="-42.801" x2="-24.051" xlink:href="#lg4" y1="101.424" y2="103.674"/><linearGradient id="SVGID_22_" gradientUnits="userSpaceOnUse" x1="-43.34" x2="-24.59" xlink:href="#lg4" y1="105.919" y2="108.169"/><linearGradient id="SVGID_23_" gradientUnits="userSpaceOnUse" x1="-41.334" x2="-22.584" xlink:href="#lg4" y1="89.2" y2="91.45"/><linearGradient id="SVGID_24_" gradientUnits="userSpaceOnUse" x1="-39.64" x2="-20.89" xlink:href="#lg4" y1="75.083" y2="77.333"/><linearGradient id="SVGID_25_" gradientUnits="userSpaceOnUse" x1="-40.695" x2="-21.945" xlink:href="#lg4" y1="83.877" y2="86.127"/><linearGradient id="SVGID_26_" gradientUnits="userSpaceOnUse" x1="-39.266" x2="-20.516" xlink:href="#lg4" y1="71.968" y2="74.218"/><linearGradient id="SVGID_27_" gradientUnits="userSpaceOnUse" x1="-40.454" x2="-21.704" xlink:href="#lg4" y1="81.866" y2="84.116"/><linearGradient id="SVGID_28_" gradientUnits="userSpaceOnUse" x1="-42.195" x2="-23.445" xlink:href="#lg4" y1="96.377" y2="98.627"/><linearGradient id="SVGID_29_" gradientUnits="userSpaceOnUse" x1="-42.735" x2="-23.985" xlink:href="#lg4" y1="100.872" y2="103.122"/><linearGradient id="SVGID_30_" gradientUnits="userSpaceOnUse" x1="-42.536" x2="-23.786" xlink:href="#lg4" y1="99.216" y2="101.466"/><linearGradient id="lg5"><stop offset="0" stop-color="#f6cfbe"/><stop offset="1" stop-color="#edad99"/></linearGradient><linearGradient id="SVGID_31_" gradientUnits="userSpaceOnUse" x1="77.44" x2="72.794" xlink:href="#lg5" y1="17.994" y2="41.225"/><linearGradient id="SVGID_32_" gradientUnits="userSpaceOnUse" x1="81.633" x2="80.814" xlink:href="#lg5" y1="11.336" y2="28.121"/><linearGradient id="SVGID_33_" gradientUnits="userSpaceOnUse" x1="-30.994" x2="84.737" xlink:href="#lg5" y1="48.502" y2=".946"/><g><g><g><path d="m105 65c3.429 4.571 4 15 4 15h-4-4s.571-10.429 4-15z" fill="url(#SVGID_1_)"/><path d="m111 80s.458-6.146 2-11c0 0-6.333 2.375-8 11 0 0 6.053 0 6 0z" fill="url(#SVGID_2_)"/></g><path d="m99 80s-.458-6.146-2-11c0 0 6.333 2.375 8 11z" fill="url(#SVGID_3_)"/></g><g><g><path d="m22 65c3.429 4.571 4 15 4 15h-4-4s.571-10.429 4-15z" fill="url(#SVGID_4_)"/><path d="m28 80s.458-6.146 2-11c0 0-6.333 2.375-8 11 0 0 6.053 0 6 0z" fill="url(#SVGID_5_)"/></g><path d="m16 80s-.458-6.146-2-11c0 0 6.333 2.375 8 11z" fill="url(#SVGID_6_)"/></g><path d="m126 82c-2-2-5.786-4-10.253-4-5.126 0-5.126 2-10.253 2-5.123 0-5.123-2-10.246-2-5.122 0-6.249 1-10.243 2-.535.134-1.005.448-1.005 1v2c0 11.044-8.957 19.972-20 19.975-11.043-.003-20-8.931-20-19.975v-2c0-.552-.47-.866-1.006-1-3.994-1-5.12-2-10.243-2s-5.123 2-10.246 2c-5.126 0-5.126-2-10.253-2-4.466 0-8.252 2-10.252 4v44h62 62z" fill="url(#SVGID_7_)"/><path d="m54 65s-3.875-1.75-6-6c-4.438-9.999 7.542-13.417 9-6 .269 1.367 1.476 2.551 3 3 7.625 1.594 3.844 13.5-6 9z" fill="url(#SVGID_8_)"/><g><path d="m58 60c-3.678 0-4.898-3.533-4.949-3.684-.175-.524.108-1.09.632-1.265.525-.176 1.087.107 1.263.627.033.095.83 2.322 3.054 2.322.552 0 1 .448 1 1s-.448 1-1 1z" fill="url(#SVGID_9_)"/></g><path d="m63.05 78.99c1.524-.449 2.731-1.633 3-3 1.458-7.417 13.438-3.999 9 6-2.125 4.25-6 6-6 6-9.843 4.5-13.625-7.406-6-9z" fill="url(#SVGID_10_)"/><g><path d="m65.05 82.99c-.552 0-1-.447-1-1s.448-1 1-1c2.224 0 3.021-2.227 3.053-2.321.18-.52.749-.798 1.268-.623.521.178.802.739.628 1.261-.05.15-1.27 3.683-4.949 3.683z" fill="url(#SVGID_11_)"/></g><g><circle cx="11" cy="90" fill="url(#SVGID_12_)" r="2"/><circle cx="13" cy="111" fill="url(#SVGID_13_)" r="1"/><circle cx="35" cy="88" fill="url(#SVGID_14_)" r="1"/><circle cx="31" cy="102" fill="url(#SVGID_15_)" r="2"/><circle cx="47" cy="109" fill="url(#SVGID_16_)" r="1"/><circle cx="18" cy="101" fill="url(#SVGID_17_)" r="1"/><circle cx="23" cy="92" fill="url(#SVGID_18_)" r="1"/><circle cx="24" cy="120" fill="url(#SVGID_19_)" r="1"/><circle cx="42" cy="118" fill="url(#SVGID_20_)" r="2"/><circle cx="62" cy="114" fill="url(#SVGID_21_)" r="2"/><circle cx="74" cy="120" fill="url(#SVGID_22_)" r="1"/><circle cx="82" cy="104" fill="url(#SVGID_23_)" r="1"/><circle cx="93" cy="91" fill="url(#SVGID_24_)" r="2"/><circle cx="102" cy="101" fill="url(#SVGID_25_)" r="1"/><circle cx="111" cy="90" fill="url(#SVGID_26_)" r="1"/><circle cx="119" cy="101" fill="url(#SVGID_27_)" r="2"/><circle cx="113" cy="115" fill="url(#SVGID_28_)" r="2"/><circle cx="100" cy="118" fill="url(#SVGID_29_)" r="1"/><circle cx="89" cy="115" fill="url(#SVGID_30_)" r="2"/></g><path d="m92 24.005-32-11-1 10 28 9c6.361 0 9.25-5.667 5-8z" fill="url(#SVGID_31_)"/><path d="m99 18.005-37-11v10l32 8c8 0 8.354-5.209 5-7z" fill="url(#SVGID_32_)"/><path d="m102 7-31.134-1.984c-5.349.333-11.866 1.989-11.866 1.989l-9 2-48-7v25l42-2c3 3.995 5.967 3.776 8 4.995.692.415 1.7 1.251 2 2l3 7.005c1.849 5.125 11.156 7.594 7-7l-2-7c0-6 1-10 5-10h30c9.198-1.161 7.56-7.007 5-8.005z" fill="url(#SVGID_33_)"/></g></svg>