<svg id="Capa_1" enable-background="new 0 0 497 497" height="512" viewBox="0 0 497 497" width="512" xmlns="http://www.w3.org/2000/svg"><g><path d="m362.698 226.272c0 24.466-9.917 46.606-25.945 62.634s-38.167 25.945-62.623 25.945h-51.26c-48.911 0-88.568-39.657-88.568-88.579 0-9.199 3.73-17.54 9.765-23.575s14.375-9.765 23.575-9.765l14.389-.003 65.595 5.32 67.345-5.32 14.389.003c18.408.001 33.338 14.931 33.338 33.34z" fill="#935b44"/><path d="m329.359 192.933h-14.429l-11.299.893c4.079 0 8.101-.16 11.714 1.182 12.693 4.712 21.74 16.934 21.74 31.265 0 24.466-9.917 46.606-25.945 62.634s-38.167 25.945-62.623 25.945h25.613c24.456 0 46.595-9.917 62.623-25.945s25.945-38.168 25.945-62.634c0-18.41-14.93-33.34-33.339-33.34z" fill="#87523e"/><path d="m315.64 199.11c0 8.09-3.29 15.42-8.59 20.73-5.31 5.3-12.64 8.59-20.74 8.59h-31.69l-7.575-2.18-7.425 2.18h-28.93c-16.19 0-29.33-13.13-29.33-29.32 0-2.12.23-4.19.67-6.18h132.94c.44 1.99.67 4.06.67 6.18z" fill="#ffe177"/><path d="m314.972 192.933h-25.534c.435 1.99.663 4.056.663 6.176 0 8.09-3.284 15.419-8.59 20.726-5.307 5.306-12.636 8.59-20.737 8.59h25.534c8.101 0 15.43-3.284 20.737-8.59 5.306-5.307 8.59-12.635 8.59-20.726.001-2.12-.228-4.186-.663-6.176z" fill="#ffc344"/><path d="m228.396 382.142c0 24.466-9.917 46.606-25.945 62.634s-38.167 25.945-62.623 25.945h-51.26c-48.911 0-88.568-39.657-88.568-88.579 0-9.199 3.73-17.54 9.765-23.575s14.375-9.765 23.575-9.765h14.387l61.773 6.198 71.171-6.198h14.386c18.409 0 33.339 14.93 33.339 33.34z" fill="#935b44"/><path d="m195.057 348.802h-14.386l-11.477.999c4.075 0 8.23-.268 11.84 1.071 12.698 4.71 21.749 16.935 21.749 31.269 0 24.466-9.917 46.606-25.945 62.634s-38.167 25.945-62.623 25.945h25.614c24.456 0 46.595-9.917 62.623-25.945s25.945-38.168 25.945-62.634c-.001-18.409-14.93-33.339-33.34-33.339z" fill="#87523e"/><path d="m181.334 354.979c0 8.09-3.284 15.419-8.59 20.726-5.307 5.306-12.636 8.59-20.737 8.59h-75.618c-16.191 0-29.327-13.125-29.327-29.316 0-2.12.228-4.186.663-6.176h132.945c.436 1.989.664 4.055.664 6.176z" fill="#ffe177"/><path d="m180.671 348.802h-25.534c.435 1.99.663 4.056.663 6.176 0 8.09-3.284 15.419-8.59 20.726-5.307 5.306-12.635 8.59-20.737 8.59h25.534c8.101 0 15.43-3.284 20.737-8.59 5.306-5.307 8.59-12.635 8.59-20.726 0-2.12-.228-4.186-.663-6.176z" fill="#ffc344"/><path d="m497 382.142c0 24.466-9.917 46.606-25.945 62.634s-38.167 25.945-62.623 25.945h-51.26c-48.911 0-88.568-39.657-88.568-88.579 0-9.199 3.73-17.54 9.765-23.575s14.375-9.765 23.575-9.765h14.386l65.338 8.031 67.607-8.031h14.387c18.408 0 33.338 14.93 33.338 33.34z" fill="#935b44"/><path d="m463.66 348.802h-14.386l-11.153 1.325c4.08 0 7.914-.592 11.528.75 12.691 4.713 21.737 16.935 21.737 31.264 0 24.466-9.917 46.606-25.945 62.634s-38.167 25.945-62.623 25.945h25.613c24.455 0 46.595-9.917 62.623-25.945 16.029-16.027 25.946-38.167 25.946-62.633 0-18.41-14.93-33.34-33.34-33.34z" fill="#87523e"/><path d="m449.938 354.979c0 8.09-3.284 15.419-8.59 20.726-5.307 5.306-12.636 8.59-20.737 8.59h-75.617c-16.191 0-29.327-13.125-29.327-29.316 0-2.12.228-4.186.663-6.176h132.945c.434 1.989.663 4.055.663 6.176z" fill="#ffe177"/><path d="m449.274 348.802h-25.534c.435 1.99.663 4.056.663 6.176 0 8.09-3.284 15.419-8.59 20.726-5.307 5.306-12.636 8.59-20.737 8.59h25.534c8.101 0 15.43-3.284 20.737-8.59 5.306-5.307 8.59-12.635 8.59-20.726.001-2.12-.228-4.186-.663-6.176z" fill="#ffc344"/><g><g><path d="m254.62 228.43h-15l-.04-35.5-.11-94.45c-.01-4.15 3.35-7.51 7.49-7.51h.01c4.14 0 7.49 3.35 7.5 7.49l.11 94.47z" fill="#02905d"/></g></g><g><path d="m247 64.97v32.155l-7.049 1.645h-26.761c-21.36 0-38.69-17.32-38.69-38.69v-28.446c0-2.957 2.397-5.354 5.354-5.354h28.456c21.368 0 38.69 17.322 38.69 38.69z" fill="#80d261"/></g><g><path d="m246.998 98.774v-33.804c0-21.369 17.323-38.691 38.691-38.691h28.45c2.957 0 5.354 2.397 5.354 5.354v28.45c0 21.369-17.323 38.691-38.691 38.691z" fill="#80d261"/></g><g><path d="m319.49 31.634v28.446c0 21.368-17.322 38.69-38.69 38.69h-23.19l-15.665-9.558 5.055-24.242c0-21.368 17.322-38.69 38.69-38.69h28.446c2.957 0 5.354 2.397 5.354 5.354z" fill="#80d261"/></g><path d="m319.49 31.634v28.446c0 21.368-17.322 38.69-38.69 38.69h-22.14c21.36 0 38.69-17.32 38.69-38.69v-24c0-5.41-4.39-9.8-9.8-9.8h26.586c2.957 0 5.354 2.397 5.354 5.354z" fill="#68ca44"/><path d="m247 64.97v32.155l-7.049 1.645h-16.941v-33.8c0-.27 0-.53-.01-.8-.42-20.73-17.15-37.46-37.88-37.88-.27-.01-.53-.01-.8-.01h23.99c21.37 0 38.69 17.32 38.69 38.69z" fill="#68ca44"/><g><g><path d="m247 88.17v10.6h-10.62l-61.88-61.88v-5.256c0-2.957 2.397-5.354 5.354-5.354h5.256z" fill="#4fc123"/></g></g><g><g><path d="m319.49 31.634v5.256l-61.88 61.88h-10.61v-10.61l61.89-61.88h5.246c2.957 0 5.354 2.397 5.354 5.354z" fill="#4fc123"/></g></g><g><g><path d="m319.49 31.634v5.256l-22.14 22.14v-21.21l11.54-11.54h5.246c2.957 0 5.354 2.397 5.354 5.354z" fill="#47a920"/></g></g><g><g><path d="m247 88.17v10.6h-10.62l-13.37-13.37v-20.43c0-.27 0-.53-.01-.8z" fill="#47a920"/></g></g></g></svg>