<svg id="Capa_1" enable-background="new 0 0 513.344 513.344" height="512" viewBox="0 0 513.344 513.344" width="512" xmlns="http://www.w3.org/2000/svg"><g><g><g><g id="XMLID_280_"><g><path d="m452.604 105.49h29.903c12.571 0 23.167 9.947 23.335 22.517.086 6.434-2.48 12.255-6.688 16.453-4.13 4.13-9.84 6.69-16.14 6.69h-35.12c12.61 0 22.83 10.22 22.83 22.82 0 6.3-2.55 12.01-6.69 16.14-4.13 4.14-9.84 6.69-16.14 6.69h-16.43c6.31 0 12.01 2.55 16.14 6.69 4.13 4.13 6.69 9.84 6.69 16.14 0 12.6-10.22 22.82-22.83 22.82h-115.32-106.24c-11.45 0-22.44-4.54-30.53-12.64l-11.6-11.6h-155.449c-2.662 0-4.821-2.158-4.821-4.821v-152.884c0-2.706 2.227-4.882 4.933-4.819l166.937 3.885 21.06-23.67c7.11-7.99 17.29-12.56 27.98-12.56h126.21c6.05 0 11.53 2.45 15.49 6.42 3.97 3.96 6.42 9.43 6.42 15.48 0 5.61-2.11 10.73-5.58 14.6h81.65c12.6 0 22.82 10.22 22.82 22.83 0 6.3-2.55 12-6.69 16.14-4.12 4.119-9.83 6.679-16.13 6.679z" fill="#fed2a4"/></g><g><path d="m446.334 202.31c-3.995 3.433-9.188 5.521-14.87 5.521h-115.32-106.24c-11.45 0-22.44-4.54-30.53-12.64l-5.74-5.74c-3.752-3.752-8.84-5.86-14.146-5.86h-147.163c-2.662 0-4.821-2.158-4.821-4.821v34.619c0 2.662 2.158 4.821 4.821 4.821h155.449l11.6 11.6c8.09 8.1 19.08 12.64 30.53 12.64h106.24 115.32c12.61 0 22.83-10.22 22.83-22.82 0-6.3-2.56-12.01-6.69-16.14-.407-.408-.833-.803-1.27-1.18z" fill="#ffbd86"/></g><g fill="#ffbd86"><path d="m475.017 78.356-114.224.01h-38.565v5.416c0 11.97 9.704 21.674 21.674 21.674h16.891 93.043c5.81-.31 11.048-2.796 14.897-6.646 4.14-4.14 6.69-9.84 6.69-16.14.001-1.472-.14-2.919-.406-4.314z"/><path d="m504.434 120.486c-3.001 1.208-6.376 1.895-9.935 1.895h-115.32-56.95v7.087c0 11.97 9.704 21.674 21.674 21.674h35.276 104.172c6.166-.09 11.747-2.625 15.803-6.682 4.208-4.198 6.774-10.018 6.688-16.453-.035-2.643-.529-5.177-1.408-7.521z"/><path d="m469.937 168.011c-2.343.613-4.844.971-7.452.971h-118.583-21.674v6.11c0 11.97 9.704 21.674 21.674 21.674h105.223c5.81-.309 11.049-2.788 14.908-6.656 4.14-4.13 6.69-9.84 6.69-16.14.001-2.059-.274-4.061-.786-5.959z"/></g><g><g id="XMLID_294_"><g><path d="m376.534 45.24c0 5.61-2.11 10.73-5.58 14.6-4.01 4.49-9.84 7.31-16.33 7.31h-50.93c-4.07 0-7.7 2.55-9.09 6.38l-12.36 34.16c-4.09 11.32-14.83 18.86-26.87 18.86h-22.92c-29.37 0-53.15-23.81-53.15-53.13 0-.1 0-.19 0-.28l.07-13.57 21.06-23.67c7.11-7.99 17.29-12.56 27.98-12.56h126.21c6.05 0 11.53 2.45 15.49 6.42 3.97 3.96 6.42 9.43 6.42 15.48z" fill="#fed2a4"/></g></g></g><path d="m370.114 29.76c-2.659-2.666-6.005-4.651-9.747-5.664.004.179.013.366.013.546 0 5.61-2.11 10.73-5.58 14.6-4.01 4.49-9.84 7.31-16.33 7.31h-50.93c-4.07 0-7.7 2.55-9.09 6.38l-12.36 34.16c-4.09 11.32-14.83 18.86-26.87 18.86h-22.92c-12.235 0-23.491-4.142-32.47-11.083 8.246 18.648 26.9 31.681 48.624 31.681h22.92c12.04 0 22.78-7.54 26.87-18.86l12.36-34.16c1.39-3.83 5.02-6.38 9.09-6.38h50.93c6.49 0 12.32-2.82 16.33-7.31 3.47-3.87 5.58-8.99 5.58-14.6 0-6.05-2.45-11.52-6.42-15.48z" fill="#ffbd86"/></g><g id="XMLID_297_"><g><path d="m488.864 490h-351.68l83.84-64.97c54.15-41.96 129.84-41.96 184 0z" fill="#fccd7f"/></g></g><path d="m290.79 444.635c28.346-21.965 62.609-32.425 96.582-31.393-52.104-29.706-117.866-25.78-166.349 11.789l-83.84 64.97h95.065z" fill="#fbc56d"/><path d="m394.296 373.358c-24.546 6.536-49.742-8.064-56.277-32.61s8.064-49.742 32.61-56.277c18.97-5.051 55.563 13.634 71.208 22.383 4.147 2.319 5.554 7.6 3.109 11.675-9.223 15.37-31.679 49.778-50.65 54.829z" fill="#68ca44"/><path d="m278.507 318.655c10.448 4.568 15.214 16.741 10.646 27.189s-16.741 15.215-27.189 10.647c-7.655-3.347-15.047-18.675-18.452-26.631-1.134-2.65.199-5.7 2.915-6.666 8.154-2.904 24.425-7.886 32.08-4.539z" fill="#68ca44"/><circle cx="266.998" cy="243.11" fill="#a6e7f0" r="17.183"/><circle cx="309.709" cy="286.189" fill="#6bd9e7" r="14.551"/><circle cx="216.344" cy="416.875" fill="#a6e7f0" r="18.622"/><g fill="#dcf5f8"><circle cx="307.677" cy="188.051" r="14.551"/><circle cx="235.264" cy="171.981" r="17.271"/></g></g></g><g><path d="m434.129 67.34h18.47c8.451 0 15.327 6.875 15.327 15.327s-6.876 15.327-15.327 15.327h-105.457c-4.142 0-7.5 3.358-7.5 7.5s3.358 7.5 7.5 7.5h135.875c8.451 0 15.327 6.875 15.327 15.327s-6.875 15.327-15.327 15.327h-135.875c-4.142 0-7.5 3.358-7.5 7.5s3.358 7.5 7.5 7.5h100.755c8.451 0 15.327 6.876 15.327 15.327s-6.875 15.327-15.327 15.327h-100.755c-4.142 0-7.5 3.358-7.5 7.5s3.358 7.5 7.5 7.5h84.321c8.451 0 15.327 6.875 15.327 15.327s-6.875 15.327-15.327 15.327h-117.298c-4.142 0-7.5 3.358-7.5 7.5s3.358 7.5 7.5 7.5h117.299c16.722 0 30.327-13.604 30.327-30.327 0-6.15-1.845-11.874-5.003-16.659 12.398-3.809 21.437-15.365 21.437-28.995 0-5.589-1.526-10.826-4.174-15.327h8.967c16.722 0 30.327-13.604 30.327-30.327s-13.604-30.327-30.327-30.327h-4.265c2.648-4.501 4.174-9.738 4.174-15.327 0-16.722-13.604-30.327-30.327-30.327h-18.47c-4.142 0-7.5 3.358-7.5 7.5s3.357 7.5 7.499 7.5z"/><path d="m174.068 235.112c9.571 9.571 22.296 14.842 35.832 14.842h9.932c4.142 0 7.5-3.358 7.5-7.5s-3.358-7.5-7.5-7.5h-9.932c-9.529 0-18.487-3.71-25.225-10.448l-11.594-11.594c-1.406-1.407-3.314-2.197-5.303-2.197h-160.278c-4.142 0-7.5 3.358-7.5 7.5s3.358 7.5 7.5 7.5h157.171z"/><path d="m504.892 482.504h-13.465l-81.814-63.401c-27.049-20.962-59.391-32.218-92.404-33.06v-10.714c0-11.055 6.402-20.804 16.09-25.353 8.457 19.775 28.027 32.437 49.176 32.436 4.543 0 9.159-.584 13.751-1.807 10.978-2.923 29.457-15.396 55.15-58.217 2.236-3.726 2.852-8.088 1.735-12.284s-3.821-7.675-7.613-9.796c-3.876-2.167-9.975-5.465-17.02-8.863-3.729-1.796-8.214-.234-10.014 3.497-1.799 3.73-.234 8.214 3.497 10.014 6.706 3.235 12.519 6.377 16.214 8.444.226.126.374.316.439.563.066.247.032.485-.102.707-17.246 28.742-34.929 48.453-46.147 51.44-18.047 4.805-36.571-4.102-44.48-20.285l38.123-9.269c4.025-.979 6.494-5.035 5.516-9.06-.979-4.024-5.036-6.498-9.06-5.516l-38.432 9.344c-.488-7.529 1.255-15.034 5.123-21.709 5.155-8.896 13.466-15.252 23.401-17.897 2.976-.792 8.657-1.187 18.829 1.431 4.009 1.034 8.1-1.382 9.133-5.394s-1.382-8.1-5.394-9.133c-10.84-2.79-19.486-3.249-26.427-1.4-13.807 3.676-25.356 12.509-32.521 24.872-5.9 10.181-8.234 21.753-6.823 33.232-8.48 3.354-15.503 9.234-20.28 16.636-1.011-1.047-11.224-8.94-11.224-8.94 1.041-5.221.581-10.637-1.407-15.713-2.742-7.001-8.045-12.515-14.934-15.527-7.565-3.309-20.215-1.845-37.6 4.344-3.236 1.152-5.881 3.617-7.256 6.762-1.375 3.146-1.39 6.761-.038 9.921 7.262 16.966 14.778 27.245 22.342 30.552 3.659 1.6 7.476 2.357 11.235 2.356 7.835 0 15.403-3.304 20.75-9.109l5.802 4.395c3.419 2.59 5.461 6.697 5.461 10.987v14.39c-14.129.994-28.253 3.889-42.014 8.779-3.903 1.387-5.942 5.675-4.555 9.579 1.387 3.903 5.674 5.941 9.579 4.555 14.434-5.13 29.311-7.853 44.124-8.255.122.006.775.004.976-.012 32.105-.651 63.86 9.593 90.106 29.934l66.514 51.544h-307.828l29.845-23.128c3.274-2.537 3.871-7.248 1.334-10.522-2.537-3.273-7.247-3.871-10.522-1.334l-45.145 34.985h-14.968c-4.142 0-7.5 3.358-7.5 7.5s3.358 7.5 7.5 7.5h385.242c4.142 0 7.5-3.358 7.5-7.5s-3.358-7.501-7.5-7.501zm-239.923-132.886c-2.693-1.177-7.951-7.983-13.477-20.24 12.751-4.267 21.32-5.026 24.01-3.851 3.217 1.407 5.694 3.982 6.975 7.252s1.211 6.842-.195 10.06c-2.904 6.643-10.671 9.682-17.313 6.779z"/><path d="m266.998 267.794c13.61 0 24.683-11.073 24.683-24.683s-11.073-24.683-24.683-24.683-24.683 11.073-24.683 24.683 11.073 24.683 24.683 24.683zm0-34.367c5.339 0 9.683 4.344 9.683 9.683s-4.344 9.683-9.683 9.683-9.683-4.344-9.683-9.683 4.344-9.683 9.683-9.683z"/><path d="m309.709 308.24c12.159 0 22.051-9.892 22.051-22.051s-9.892-22.051-22.051-22.051-22.051 9.892-22.051 22.051 9.892 22.051 22.051 22.051zm0-29.102c3.888 0 7.051 3.163 7.051 7.051s-3.163 7.051-7.051 7.051-7.051-3.163-7.051-7.051 3.163-7.051 7.051-7.051z"/><path d="m190.222 416.876c0 14.404 11.718 26.122 26.122 26.122s26.122-11.718 26.122-26.122-11.718-26.122-26.122-26.122-26.122 11.718-26.122 26.122zm37.244 0c0 6.133-4.989 11.122-11.122 11.122s-11.122-4.989-11.122-11.122 4.989-11.122 11.122-11.122 11.122 4.989 11.122 11.122z"/><path d="m307.677 210.103c12.159 0 22.051-9.892 22.051-22.051s-9.892-22.051-22.051-22.051-22.051 9.892-22.051 22.051 9.892 22.051 22.051 22.051zm0-29.102c3.888 0 7.051 3.163 7.051 7.051s-3.163 7.051-7.051 7.051-7.051-3.163-7.051-7.051 3.163-7.051 7.051-7.051z"/><path d="m260.035 171.981c0-13.659-11.112-24.771-24.771-24.771s-24.771 11.112-24.771 24.771 11.112 24.771 24.771 24.771 24.771-11.112 24.771-24.771zm-24.771 9.771c-5.388 0-9.771-4.383-9.771-9.771s4.383-9.771 9.771-9.771 9.771 4.383 9.771 9.771-4.383 9.771-9.771 9.771z"/><path d="m7.326 63.065 68.126 1.585c.06.001.118.002.178.002 4.061 0 7.399-3.244 7.495-7.326.096-4.141-3.183-7.576-7.324-7.672l-68.127-1.585c-4.112-.115-7.576 3.183-7.672 7.324-.096 4.14 3.183 7.575 7.324 7.672z"/><path d="m107.414 65.394 71.79 1.671c2.177.052 4.314-.868 5.778-2.513l21.055-23.668c5.679-6.383 13.835-10.044 22.378-10.044h126.213c7.943 0 14.405 6.462 14.405 14.405s-6.462 14.405-14.405 14.405h-50.932c-7.205 0-13.693 4.553-16.144 11.328l-12.358 34.165c-3.008 8.318-10.972 13.906-19.817 13.906h-22.919c-4.142 0-7.5 3.358-7.5 7.5s3.358 7.5 7.5 7.5h22.919c15.141 0 28.773-9.566 33.923-23.804l12.358-34.165c.31-.855 1.128-1.43 2.038-1.43h50.932c7.415 0 14.192-2.764 19.37-7.309h28.169c4.142 0 7.5-3.358 7.5-7.5s-3.358-7.5-7.5-7.5h-19.005c.566-2.274.871-4.649.871-7.096 0-16.214-13.191-29.405-29.405-29.405h-126.213c-12.821 0-25.063 5.494-33.585 15.074l-18.748 21.075-68.319-1.59c-4.136-.114-7.576 3.183-7.672 7.324-.097 4.139 3.182 7.574 7.323 7.671z"/></g></g></svg>